<svg width="88" height="88" viewBox="0 0 88 88" fill="none" xmlns="http://www.w3.org/2000/svg">
<path d="M79.5385 20.3077H8.46154V37.2308H79.5385V20.3077Z" fill="#95CFFD"/>
<path fill-rule="evenodd" clip-rule="evenodd" d="M18.9569 15.6341H69.0433C71.0033 15.6341 72.6362 15.634 73.9698 15.743C75.3595 15.8565 76.6598 16.1017 77.8881 16.7276C79.7757 17.6894 81.3107 19.2243 82.2724 21.112C82.8982 22.3403 83.1434 23.6405 83.257 25.0304C83.366 26.3638 83.366 27.9969 83.366 29.9569V58.0431C83.366 60.0031 83.366 61.6362 83.257 62.9696C83.1434 64.3595 82.8982 65.6597 82.2724 66.888C81.3107 68.7757 79.7757 70.3105 77.8881 71.2724C76.6598 71.8982 75.3595 72.1434 73.9698 72.257C72.6362 72.3659 71.0033 72.3659 69.0433 72.3659H18.9567C16.9967 72.3659 15.3638 72.3659 14.0304 72.257C12.6406 72.1434 11.3403 71.8982 10.112 71.2724C8.22424 70.3105 6.68946 68.7757 5.7276 66.888C5.10177 65.6597 4.85655 64.3595 4.743 62.9696C4.63405 61.6362 4.63408 60.0033 4.63411 58.0431V36.6686V36.6667V36.6647V29.9569C4.63408 27.9967 4.63405 26.3638 4.743 25.0304C4.85655 23.6405 5.10177 22.3403 5.7276 21.112C6.68946 19.2243 8.22424 17.6894 10.112 16.7276C11.3403 16.1017 12.6406 15.8565 14.0304 15.743C15.3638 15.634 16.9967 15.6341 18.9569 15.6341ZM10.0326 39.366V57.9333C10.0326 60.0314 10.0347 61.4426 10.1235 62.5301C10.2098 63.5859 10.3642 64.0967 10.5377 64.4371C10.982 65.309 11.6909 66.0181 12.5628 66.4623C12.9033 66.6358 13.414 66.7901 14.47 66.8764C15.5574 66.9653 16.9686 66.9675 19.0667 66.9675H68.9333C71.0314 66.9675 72.4426 66.9653 73.5301 66.8764C74.5859 66.7901 75.0968 66.6358 75.4372 66.4623C76.3092 66.0181 77.0181 65.3092 77.4623 64.4371C77.6358 64.0968 77.7903 63.5859 77.8764 62.5301C77.9653 61.4426 77.9675 60.0314 77.9675 57.9333V39.366H10.0326ZM77.9675 33.9675H10.0326V30.0667C10.0326 27.9686 10.0347 26.5574 10.1235 25.4699C10.2098 24.4141 10.3642 23.9032 10.5377 23.5628C10.982 22.6908 11.6909 21.9819 12.5628 21.5377C12.9033 21.3642 13.414 21.2097 14.47 21.1236C15.5574 21.0347 16.9686 21.0325 19.0667 21.0325H68.9333C71.0314 21.0325 72.4426 21.0347 73.5301 21.1236C74.5859 21.2099 75.0968 21.3642 75.4372 21.5377C76.3092 21.9819 77.0181 22.6908 77.4623 23.5628C77.6358 23.9032 77.7903 24.4141 77.8764 25.4699C77.9653 26.5574 77.9675 27.9686 77.9675 30.0667V33.9675ZM19.3008 51.3333C19.3008 49.8425 20.5092 48.634 22 48.634H40.3333C41.824 48.634 43.0325 49.8425 43.0325 51.3333C43.0325 52.824 41.824 54.0325 40.3333 54.0325H22C20.5092 54.0325 19.3008 52.824 19.3008 51.3333Z" fill="#101980"/>
</svg>
