<svg width="88" height="88" viewBox="0 0 88 88" fill="none" xmlns="http://www.w3.org/2000/svg">
<path d="M44.8462 81.2308C64.9408 81.2308 81.2308 64.562 81.2308 44C81.2308 23.438 64.9408 6.76923 44.8462 6.76923C24.7515 6.76923 8.46155 23.438 8.46155 44C8.46155 64.562 24.7515 81.2308 44.8462 81.2308Z" fill="#95CFFD"/>
<path fill-rule="evenodd" clip-rule="evenodd" d="M44 10.0326C25.2402 10.0326 10.0326 25.2402 10.0326 44C10.0326 62.7598 25.2403 77.9675 44 77.9675C62.7597 77.9675 77.9675 62.7597 77.9675 44C77.9675 25.2403 62.7598 10.0326 44 10.0326ZM4.63409 44C4.63409 22.2588 22.2588 4.63409 44 4.63409C65.7412 4.63409 83.366 22.2588 83.366 44C83.366 65.7412 65.7412 83.366 44 83.366C22.2588 83.366 4.63409 65.7412 4.63409 44ZM24.6256 35.8008C27.8214 28.2585 35.2928 22.9675 44 22.9675C49.385 22.9675 54.3031 24.9947 58.0224 28.3237C59.1332 29.3179 59.2276 31.0244 58.2334 32.1352C57.2392 33.2459 55.5327 33.3404 54.422 32.3462C51.6543 29.8689 48.0059 28.366 44 28.366C38.3724 28.366 33.4392 31.3393 30.6859 35.8008H40.3333C41.824 35.8008 43.0325 37.0093 43.0325 38.5C43.0325 39.9907 41.824 41.1992 40.3333 41.1992H28.6161C28.4518 42.1079 28.366 43.0439 28.366 44C28.366 44.9561 28.4518 45.8921 28.6161 46.8008H40.3333C41.824 46.8008 43.0325 48.0093 43.0325 49.5C43.0325 50.9907 41.824 52.1992 40.3333 52.1992H30.6859C33.4392 56.6607 38.3724 59.634 44 59.634C48.0059 59.634 51.6543 58.1309 54.422 55.6537C55.5328 54.6596 57.2393 54.7541 58.2335 55.8649C59.2277 56.9757 59.1331 58.6821 58.0223 59.6763C54.3031 63.0051 49.3851 65.0325 44 65.0325C35.2928 65.0325 27.8214 59.7415 24.6256 52.1992H22C20.5093 52.1992 19.3008 50.9907 19.3008 49.5C19.3008 48.0093 20.5093 46.8008 22 46.8008H23.1523C23.0304 45.8845 22.9675 44.9496 22.9675 44C22.9675 43.0504 23.0304 42.1155 23.1523 41.1992H22C20.5093 41.1992 19.3008 39.9907 19.3008 38.5C19.3008 37.0093 20.5093 35.8008 22 35.8008H24.6256Z" fill="#101980"/>
</svg>
