<svg width="88" height="88" viewBox="0 0 88 88" fill="none" xmlns="http://www.w3.org/2000/svg">
<path d="M60.9231 42.3077H67.6923V49.0769H60.9231V42.3077Z" fill="#95CFFD"/>
<path d="M11.8462 71.0769C11.8462 67.3384 14.8768 64.3077 18.6154 64.3077H77.8462V79.5384H11.8462V71.0769Z" fill="#95CFFD"/>
<path d="M47.3846 62.6154C47.3846 58.8769 50.4154 55.8462 54.1538 55.8462H79.5385V71.0769H47.3846V62.6154Z" fill="#95CFFD"/>
<path d="M13.5385 70.2633C13.5385 61.3663 20.7509 54.1538 29.6479 54.1538C34.7705 54.1538 38.9231 58.3064 38.9231 63.429V81.2308H13.5385V70.2633Z" fill="#95CFFD"/>
<path d="M49.0769 62.9538C49.0769 53.4206 56.8052 45.6923 66.3385 45.6923C70.8248 45.6923 74.4615 49.3291 74.4615 53.8154V72.7692H49.0769V62.9538Z" fill="#95CFFD"/>
<path fill-rule="evenodd" clip-rule="evenodd" d="M67.6923 10.4754H20.3077C14.8775 10.4754 10.4754 14.8774 10.4754 20.3077V69.3846C10.4754 74.8149 14.8775 79.2169 20.3077 79.2169H67.6923C73.1226 79.2169 77.5246 74.8149 77.5246 69.3846V20.3077C77.5246 14.8775 73.1226 10.4754 67.6923 10.4754ZM20.3077 5.07692C11.896 5.07692 5.07692 11.896 5.07692 20.3077V69.3846C5.07692 77.7964 11.896 84.6154 20.3077 84.6154H67.6923C76.1041 84.6154 82.9231 77.7964 82.9231 69.3846V20.3077C82.9231 11.896 76.1041 5.07692 67.6923 5.07692H20.3077Z" fill="#101980"/>
<path fill-rule="evenodd" clip-rule="evenodd" d="M8.41029 74.8298C7.27228 73.8669 7.13035 72.1637 8.09329 71.0256L26.7087 49.0256L30.8298 52.5128L12.2144 74.5128C11.2515 75.6507 9.5483 75.7927 8.41029 74.8298Z" fill="#101980"/>
<path fill-rule="evenodd" clip-rule="evenodd" d="M27.083 48.6615C28.2472 47.7302 29.9457 47.9189 30.877 49.083L44.4155 66.0061L40.1999 69.3785L26.6615 52.4555C25.7302 51.2913 25.919 49.5927 27.083 48.6615Z" fill="#101980"/>
<path fill-rule="evenodd" clip-rule="evenodd" d="M40.668 69.8365C39.4839 68.9309 39.258 67.2369 40.1635 66.0526L62.1635 37.2834L66.4518 40.5628L44.4518 69.332C43.5463 70.5161 41.8523 70.742 40.668 69.8365Z" fill="#101980"/>
<path fill-rule="evenodd" clip-rule="evenodd" d="M62.6882 36.7637C63.8807 35.8693 65.5727 36.111 66.4671 37.3035L81.6979 57.6112C82.5922 58.8038 82.3506 60.4958 81.158 61.3902C79.9654 62.2845 78.2735 62.0429 77.3791 60.8503L62.1483 40.5426C61.2539 39.35 61.4956 37.6581 62.6882 36.7637Z" fill="#101980"/>
<path d="M35.5385 25.3846C35.5385 30.0578 31.7501 33.8462 27.0769 33.8462C22.4038 33.8462 18.6154 30.0578 18.6154 25.3846C18.6154 20.7115 22.4038 16.9231 27.0769 16.9231C31.7501 16.9231 35.5385 20.7115 35.5385 25.3846Z" fill="#95CFFD"/>
<path fill-rule="evenodd" clip-rule="evenodd" d="M27.0769 28.4477C28.7686 28.4477 30.14 27.0762 30.14 25.3846C30.14 23.693 28.7686 22.3215 27.0769 22.3215C25.3853 22.3215 24.0138 23.693 24.0138 25.3846C24.0138 27.0762 25.3853 28.4477 27.0769 28.4477ZM27.0769 33.8462C31.7501 33.8462 35.5385 30.0578 35.5385 25.3846C35.5385 20.7115 31.7501 16.9231 27.0769 16.9231C22.4038 16.9231 18.6154 20.7115 18.6154 25.3846C18.6154 30.0578 22.4038 33.8462 27.0769 33.8462Z" fill="#101980"/>
</svg>
