<svg width="88" height="88" viewBox="0 0 88 88" fill="none" xmlns="http://www.w3.org/2000/svg">
<path d="M10.1538 22C10.1538 17.3269 13.9422 13.5385 18.6154 13.5385H69.3846C74.0577 13.5385 77.8461 17.3269 77.8461 22V28.7692H10.1538V22Z" fill="#95CFFD"/>
<path fill-rule="evenodd" clip-rule="evenodd" d="M20.3077 15.5523C14.8775 15.5523 10.4754 19.9544 10.4754 25.3846V67.6923C10.4754 73.1225 14.8775 77.5246 20.3077 77.5246H67.6923C73.1225 77.5246 77.5246 73.1225 77.5246 67.6923V25.3846C77.5246 19.9544 73.1225 15.5523 67.6923 15.5523H20.3077ZM5.07692 25.3846C5.07692 16.9729 11.896 10.1538 20.3077 10.1538H67.6923C76.104 10.1538 82.9231 16.9729 82.9231 25.3846V67.6923C82.9231 76.104 76.104 82.9231 67.6923 82.9231H20.3077C11.896 82.9231 5.07692 76.104 5.07692 67.6923V25.3846Z" fill="#101980"/>
<path fill-rule="evenodd" clip-rule="evenodd" d="M81.2308 32.1538H8.46153V26.7554H81.2308V32.1538Z" fill="#101980"/>
<path fill-rule="evenodd" clip-rule="evenodd" d="M23.6923 4.07C25.183 4.07 26.3915 5.27849 26.3915 6.76923V18.6154C26.3915 20.1061 25.183 21.3146 23.6923 21.3146C22.2016 21.3146 20.9931 20.1061 20.9931 18.6154V6.76923C20.9931 5.27849 22.2016 4.07 23.6923 4.07Z" fill="#101980"/>
<path fill-rule="evenodd" clip-rule="evenodd" d="M64.3077 4.07C65.7984 4.07 67.0069 5.27849 67.0069 6.76923V18.6154C67.0069 20.1061 65.7984 21.3146 64.3077 21.3146C62.8169 21.3146 61.6085 20.1061 61.6085 18.6154V6.76923C61.6085 5.27849 62.8169 4.07 64.3077 4.07Z" fill="#101980"/>
<path d="M32.7505 49.3387C31.9604 48.0746 30.295 47.6903 29.031 48.4802C27.7669 49.2704 27.3825 50.9358 28.1725 52.1997L32.7505 49.3387ZM28.1725 52.1997L36.6341 65.7382L41.2121 62.8772L32.7505 49.3387L28.1725 52.1997Z" fill="#101980"/>
<path fill-rule="evenodd" clip-rule="evenodd" d="M61.0616 40.3243C62.157 41.3354 62.2253 43.0431 61.2142 44.1385L40.9065 66.1385C39.8953 67.2339 38.1876 67.3022 37.0922 66.2911C35.9968 65.28 35.9285 63.5723 36.9397 62.4769L57.2474 40.4769C58.2585 39.3815 59.9662 39.3131 61.0616 40.3243Z" fill="#101980"/>
</svg>
