<svg width="88" height="88" viewBox="0 0 88 88" fill="none" xmlns="http://www.w3.org/2000/svg">
<g clip-path="url(#clip0_35_1673)">
<mask id="mask0_35_1673" style="mask-type:luminance" maskUnits="userSpaceOnUse" x="0" y="0" width="88" height="88">
<path d="M88 0H0V88H88V0Z" fill="white"/>
</mask>
<g mask="url(#mask0_35_1673)">
<path d="M64.3922 27.9131C62.7977 23.5204 65.0638 18.6606 69.4538 17.0585L73.5205 15.5742L79.5385 32.1539L75.4719 33.638C71.0818 35.2401 66.2307 32.978 64.6362 28.5853L64.3922 27.9131Z" fill="#95CFFD"/>
<path fill-rule="evenodd" clip-rule="evenodd" d="M55.2295 4.67522C56.9003 4.26437 58.5397 4.45743 60.0466 5.37278C61.2288 6.09089 61.8793 7.26467 62.3143 8.19572C62.7638 9.15789 63.2245 10.4272 63.7569 11.8943L63.7985 12.0089L64.4466 13.7946C71.3389 12.4977 78.459 15.7097 80.862 22.3302C83.2645 28.9489 79.8695 35.996 73.756 39.4417L74.4488 41.3502C74.9813 42.817 75.4419 44.0859 75.7143 45.1124C75.9781 46.1067 76.2313 47.4228 75.7873 48.7311C75.2211 50.3994 74.0917 51.6019 72.5495 52.3636C71.3865 52.9381 70.0526 52.9736 68.9246 52.9365C67.7394 52.8975 66.2194 52.7405 64.3845 52.5509L64.2826 52.5403C58.4051 51.9334 51.5681 51.779 46.3904 53.1503L51.1595 66.2892C51.1595 66.2893 51.1595 66.2891 51.1595 66.2892C51.1741 66.3294 51.1887 66.3694 51.2029 66.4087C51.4088 66.9748 51.5817 67.4504 51.6911 67.8975C52.7723 72.3181 50.1918 76.6842 46.1265 78.5795C45.7062 78.7753 45.2189 78.9531 44.5649 79.1917L44.4459 79.2352L44.362 79.2658C43.8318 79.4594 43.4364 79.6038 43.0578 79.7115C39.4409 80.7404 35.4427 79.7968 32.9869 76.9476C32.7338 76.6537 32.4947 76.32 32.2099 75.9222L32.1527 75.8424L20.0073 58.888C20.0003 58.8784 19.9935 58.8687 19.9868 58.859C14.8382 57.4649 10.4944 53.9389 8.59147 48.6962C5.28262 39.5805 10.9562 29.685 20.4249 26.2294C20.4249 26.2294 20.4249 26.2294 20.4249 26.2294L32.1679 21.9435C32.1748 21.941 32.1817 21.9384 32.1887 21.9359C32.1926 21.9345 32.1965 21.9331 32.2004 21.9317L33.0241 21.631C38.334 19.6932 44.1975 14.6108 48.7854 9.86664L48.8581 9.79148C50.1418 8.46412 51.2048 7.36489 52.0871 6.57171C52.9267 5.8169 53.9704 4.98484 55.2295 4.67522ZM31.495 27.9359L22.2758 31.3006C15.0445 33.9397 11.5652 41.0668 13.666 46.8542C15.7649 52.6369 22.9905 55.8526 30.2198 53.2141L39.4479 49.8461L31.495 27.9359ZM44.5428 48.0602L36.5429 26.0207C42.5391 23.3166 48.4232 18.0068 52.6661 13.6195C54.0404 12.1985 54.9718 11.2377 55.6963 10.5863C56.2938 10.0492 56.5434 9.92136 56.5634 9.90693C56.8397 9.84419 56.9894 9.8619 57.1238 9.92202C57.1749 9.99931 57.2767 10.1669 57.4233 10.4808C57.7582 11.1975 58.1376 12.2354 58.7239 13.8508L69.3323 43.0767C69.9187 44.6921 70.2934 45.7318 70.4964 46.4969C70.5861 46.8352 70.6153 47.0299 70.6256 47.1214C70.5598 47.2585 70.4552 47.3708 70.1999 47.5027C70.1748 47.5046 69.9018 47.5673 69.102 47.541C68.13 47.509 66.801 47.3733 64.8372 47.1704C58.7768 46.5447 50.8688 46.2696 44.5428 48.0602ZM71.8802 34.2738C75.5331 31.8318 77.0382 27.6179 75.7875 24.1721C74.5374 20.728 70.6851 18.4712 66.3211 18.9588L71.8802 34.2738ZM41.2899 54.9206L32.0707 58.2853C30.4154 58.8895 28.7226 59.2681 27.0383 59.4329L36.5411 72.6983C36.5411 72.6983 36.5411 72.6982 36.5411 72.6983C36.9124 73.2165 37.0018 73.3368 37.076 73.4231C37.9841 74.4767 39.7141 75.05 41.5806 74.519C41.7439 74.4726 41.9407 74.4027 42.5948 74.164C43.4156 73.8643 43.664 73.7711 43.8454 73.6866M41.2899 54.9206L46.0851 68.1315C46.3581 68.8833 46.4173 69.0582 46.4472 69.1804C46.8175 70.6947 45.9752 72.6934 43.8454 73.6866" fill="#101980"/>
</g>
</g>
<defs>
<clipPath id="clip0_35_1673">
<rect width="88" height="88" fill="white"/>
</clipPath>
</defs>
</svg>
