<svg width="88" height="88" viewBox="0 0 88 88" fill="none" xmlns="http://www.w3.org/2000/svg">
<path d="M75.0018 52.4335C73.814 53.5885 71.9146 53.5619 70.7596 52.374L61.6971 43.0535C61.3121 42.6575 61.321 42.0244 61.717 41.6394L67.9403 35.5883C71.108 32.5083 76.1728 32.5794 79.2529 35.7471L79.95 36.464C83.03 39.6318 82.959 44.6966 79.7913 47.7766L75.0018 52.4335Z" fill="#95CFFD"/>
<path d="M68.8883 37.0425L67.1689 35.2277L67.1687 35.2279L68.8883 37.0425ZM61.3649 44.1717L59.6453 42.357L57.73 44.1719L59.6455 45.9866L61.3649 44.1717ZM71.3979 53.6766L69.6786 55.4915L71.3977 57.1201L73.1171 55.4917L71.3979 53.6766ZM78.9214 46.5475L77.202 44.7326L77.202 44.7326L78.9214 46.5475ZM25.5396 63.5625C26.1247 64.8131 27.6129 65.3525 28.8635 64.7674C30.1141 64.1822 30.6535 62.694 30.0683 61.4435L25.5396 63.5625ZM24.3552 58.8683L25.555 56.675L25.5548 56.6749L24.3552 58.8683ZM19.3083 57.8561L19.5593 60.3434L19.5598 60.3434L19.3083 57.8561ZM14.3995 58.3514L14.6458 60.8393L14.6505 60.8388L14.3995 58.3514ZM10.1569 57.6045L11.2443 55.3534L11.2443 55.3534L10.1569 57.6045ZM7.02725 54.79L4.89238 56.0909L4.8924 56.091L7.02725 54.79ZM6.01928 50.815L3.52305 50.6777L3.52305 50.6777L6.01928 50.815ZM7.45788 46.9609L5.47476 45.4386L5.47312 45.4408L7.45788 46.9609ZM10.3634 43.1757L8.38039 41.6533L8.38029 41.6534L10.3634 43.1757ZM10.3634 33.8801L12.3464 32.3577L12.3457 32.3568L10.3634 33.8801ZM7.45604 30.0966L9.43836 28.5733L9.43765 28.5724L7.45604 30.0966ZM6.14695 27.2693L8.59322 26.7538L8.5932 26.7537L6.14695 27.2693ZM6.20965 24.1827L8.63307 24.7967L8.63308 24.7967L6.20965 24.1827ZM7.63255 21.4054L5.7119 19.805L5.71171 19.8053L7.63255 21.4054ZM10.1535 19.4491L11.2375 21.7019L11.2398 21.7008L10.1535 19.4491ZM14.3995 18.706L14.6497 16.2186L14.6492 16.2185L14.3995 18.706ZM19.3249 19.2014L19.0747 21.6889L19.0773 21.6891L19.3249 19.2014ZM24.37 18.1844L25.5704 20.3774L25.5752 20.3748L24.37 18.1844ZM27.804 14.5527L25.5411 13.49L25.5386 13.4952L27.804 14.5527ZM29.8109 10.2791L32.0738 11.3418L32.0752 11.3389L29.8109 10.2791ZM32.6128 7.1639L33.9244 9.29219L33.9245 9.29212L32.6128 7.1639ZM40.896 7.1639L39.5842 9.29212L39.5843 9.29219L40.896 7.1639ZM43.6978 10.2791L41.4336 11.3389L41.4379 11.3482L43.6978 10.2791ZM45.7195 14.5527L47.9852 13.4958L47.9794 13.4837L45.7195 14.5527ZM49.1517 18.1844L47.9458 20.3744L47.9524 20.378L49.1517 18.1844ZM54.1986 19.2014L54.4464 21.6891L54.4495 21.6888L54.1986 19.2014ZM59.1093 18.706L58.8588 16.2186L58.8584 16.2186L59.1093 18.706ZM62.3477 19.046L61.5837 21.4264L61.5841 21.4265L62.3477 19.046ZM65.1378 20.6403L66.8092 18.7811L66.8087 18.7808L65.1378 20.6403ZM64.9984 26.1014C64.921 27.48 65.9758 28.6602 67.3543 28.7376C68.7328 28.815 69.9131 27.7603 69.9905 26.3817L64.9984 26.1014ZM35.7656 68.4215L34.0463 66.6066L34.044 66.6088L35.7656 68.4215ZM34.3791 69.8746L36.4286 71.3062L36.4324 71.3007L34.3791 69.8746ZM33.7955 71.0258L36.1587 71.8416L36.1626 71.8301L33.7955 71.0258ZM33.464 72.9586L30.9813 72.6653L30.981 72.6675L33.464 72.9586ZM32.5213 81L30.0383 80.7089C29.9499 81.4632 30.2091 82.2168 30.7429 82.7571C31.2767 83.2973 32.0271 83.5656 32.7824 83.4863L32.5213 81ZM41.0096 80.1087L41.2707 82.595L41.2731 82.5947L41.0096 80.1087ZM43.0515 79.7947L43.7809 82.1859L43.787 82.184L43.0515 79.7947ZM44.2668 79.24L42.9443 77.1184L42.94 77.1211L44.2668 79.24ZM45.7987 77.9282L47.5181 79.7431L47.5181 79.7431L45.7987 77.9282ZM81 41.7966L83.5 41.7968L81 41.7966ZM61.363 44.1699L59.6441 42.3546C59.1456 42.8267 58.8631 43.483 58.863 44.1696C58.8629 44.8562 59.1452 45.5126 59.6437 45.9848L61.363 44.1699ZM80.6424 48.3643C81.6448 47.4149 81.6878 45.8325 80.7383 44.8301C79.7889 43.8276 78.2066 43.7847 77.2041 44.7341L80.6424 48.3643ZM47.0471 38.5287L49.5469 38.4935L49.5469 38.4934L47.0471 38.5287ZM46.303 42.3028L48.6039 43.2806L48.604 43.2803L46.303 42.3028ZM27.1928 42.3028L24.8919 43.2803L24.892 43.2806L27.1928 42.3028ZM26.4488 38.5287L23.949 38.4934L23.949 38.4935L26.4488 38.5287ZM29.5136 31.7134L31.2207 33.5398L31.2209 33.5396L29.5136 31.7134ZM43.9823 31.7134L42.275 33.5396L42.2752 33.5398L43.9823 31.7134ZM67.1687 35.2279L59.6453 42.357L63.0844 45.9864L70.6079 38.8572L67.1687 35.2279ZM59.6455 45.9866L69.6786 55.4915L73.1173 51.8617L63.0842 42.3568L59.6455 45.9866ZM73.1175 55.4913L80.641 48.3622L77.2018 44.7328L69.6784 51.8619L73.1175 55.4913ZM80.6407 48.3624C82.4538 46.6448 83.4993 44.2855 83.4993 41.795H78.4993C78.4993 42.8696 78.05 43.9293 77.202 44.7326L80.6407 48.3624ZM83.4993 41.795C83.4993 39.3045 82.4538 36.9453 80.6407 35.2277L77.202 38.8574C78.05 39.6608 78.4993 40.7204 78.4993 41.795H83.4993ZM80.6407 35.2277C78.8323 33.5144 76.4071 32.5741 73.9048 32.5741V37.5741C75.1658 37.5741 76.3495 38.0498 77.202 38.8574L80.6407 35.2277ZM73.9048 32.5741C71.4026 32.5741 68.9774 33.5144 67.1689 35.2277L70.6076 38.8574C71.4602 38.0498 72.6439 37.5741 73.9048 37.5741V32.5741ZM30.0683 61.4435C29.121 59.4188 27.5321 57.7565 25.555 56.675L23.1555 61.0616C24.232 61.6505 25.0581 62.5336 25.5396 63.5625L30.0683 61.4435ZM25.5548 56.6749C23.5793 55.5944 21.3055 55.1414 19.0569 55.3687L19.5598 60.3434C20.8173 60.2163 22.0776 60.4721 23.1557 61.0617L25.5548 56.6749ZM19.0573 55.3687L14.1485 55.8641L14.6505 60.8388L19.5593 60.3434L19.0573 55.3687ZM14.1532 55.8636C13.1457 55.9634 12.1341 55.7832 11.2443 55.3534L9.06952 59.8556C10.7964 60.6898 12.7319 61.0288 14.6458 60.8393L14.1532 55.8636ZM11.2443 55.3534C10.3557 54.9241 9.6382 54.2704 9.16209 53.4891L4.8924 56.091C5.88489 57.7196 7.3415 59.0209 9.06953 59.8556L11.2443 55.3534ZM9.16211 53.4891C8.68699 52.7094 8.46727 51.8293 8.51551 50.9523L3.52305 50.6777C3.41845 52.5798 3.89894 54.4606 4.89238 56.0909L9.16211 53.4891ZM8.5155 50.9523C8.56376 50.0751 8.87941 49.2164 9.44264 48.481L5.47312 45.4408C4.31134 46.9577 3.62766 48.7761 3.52305 50.6777L8.5155 50.9523ZM9.44101 48.4831L12.3465 44.6979L8.38029 41.6534L5.47476 45.4386L9.44101 48.4831ZM12.3464 44.698C13.7115 42.9199 14.4588 40.76 14.4588 38.5279H9.45884C9.45884 39.6358 9.08913 40.7301 8.38039 41.6533L12.3464 44.698ZM14.4588 38.5279C14.4588 36.2957 13.7115 34.1358 12.3464 32.3577L8.38039 35.4024C9.08913 36.3256 9.45884 37.4199 9.45884 38.5279H14.4588ZM12.3457 32.3568L9.43836 28.5733L5.47372 31.6199L8.38109 35.4033L12.3457 32.3568ZM9.43765 28.5724C9.01486 28.0227 8.72974 27.4016 8.59322 26.7538L3.70068 27.7848C3.99454 29.1793 4.60273 30.4875 5.47443 31.6208L9.43765 28.5724ZM8.5932 26.7537C8.45677 26.1065 8.47018 25.4396 8.63307 24.7967L3.78622 23.5687C3.4361 24.9506 3.40672 26.3903 3.70071 27.785L8.5932 26.7537ZM8.63308 24.7967C8.79605 24.1534 9.1069 23.5415 9.55338 23.0055L5.71171 19.8053C4.79635 20.9041 4.13622 22.1872 3.78621 23.5688L8.63308 24.7967ZM9.55319 23.0057C10.0001 22.4694 10.5727 22.0217 11.2375 21.7019L9.06953 17.1963C7.77452 17.8194 6.62692 18.7069 5.7119 19.805L9.55319 23.0057ZM11.2398 21.7008C12.1297 21.2715 13.1418 21.0923 14.1498 21.1935L14.6492 16.2185C12.7344 16.0263 10.7966 16.3631 9.06722 17.1974L11.2398 21.7008ZM14.1493 21.1935L19.0747 21.6888L19.5751 16.7139L14.6497 16.2186L14.1493 21.1935ZM19.0773 21.6891C21.3248 21.9128 23.5961 21.4581 25.5704 20.3774L23.1696 15.9915C22.091 16.5819 20.8307 16.8389 19.5724 16.7137L19.0773 21.6891ZM25.5752 20.3748C27.5445 19.2912 29.1261 17.6306 30.0693 15.6102L25.5386 13.4952C25.0592 14.5222 24.2369 15.4042 23.1648 15.9941L25.5752 20.3748ZM30.0668 15.6154L32.0738 11.3418L27.5481 9.21638L25.5411 13.49L30.0668 15.6154ZM32.0752 11.3389C32.4582 10.5205 33.0938 9.80411 33.9244 9.29219L31.3012 5.0356C29.6667 6.04287 28.3557 7.49081 27.5467 9.21931L32.0752 11.3389ZM33.9245 9.29212C34.756 8.77963 35.7395 8.5 36.7544 8.5V3.5C34.8284 3.5 32.9343 4.02901 31.3011 5.03567L33.9245 9.29212ZM36.7544 8.5C37.7693 8.5 38.7527 8.77963 39.5842 9.29212L42.2077 5.03567C40.5745 4.02901 38.6804 3.5 36.7544 3.5V8.5ZM39.5843 9.29219C40.415 9.80411 41.0505 10.5205 41.4336 11.3389L45.9621 9.21931C45.1531 7.49081 43.842 6.04287 42.2076 5.0356L39.5843 9.29219ZM41.4379 11.3482L43.4597 15.6218L47.9794 13.4837L45.9577 9.21001L41.4379 11.3482ZM43.4539 15.6096C44.3964 17.63 45.9774 19.2905 47.9458 20.3744L50.3575 15.9945C49.286 15.4045 48.4641 14.5225 47.9851 13.4958L43.4539 15.6096ZM47.9524 20.378C49.9277 21.458 52.2004 21.9128 54.4464 21.6891L53.9508 16.7137C52.6947 16.8388 51.4322 16.582 50.351 15.9909L47.9524 20.378ZM54.4495 21.6888L59.3602 21.1934L58.8584 16.2186L53.9477 16.714L54.4495 21.6888ZM59.3598 21.1934C60.1124 21.1176 60.8719 21.1979 61.5837 21.4264L63.1118 16.6656C61.7422 16.226 60.2918 16.0743 58.8588 16.2186L59.3598 21.1934ZM61.5841 21.4265C62.2959 21.6548 62.9371 22.0238 63.4669 22.4999L66.8087 18.7808C65.744 17.824 64.4813 17.1049 63.1113 16.6654L61.5841 21.4265ZM63.4664 22.4995C63.9958 22.9754 64.4003 23.5455 64.6611 24.1654L69.2698 22.2262C68.7167 20.9119 67.8739 19.7383 66.8092 18.7811L63.4664 22.4995ZM64.6611 24.1654C64.9217 24.7846 65.0353 25.4444 64.9984 26.1014L69.9905 26.3817C70.0704 24.9595 69.823 23.541 69.2698 22.2262L64.6611 24.1654ZM67.1708 35.2276L34.0463 66.6066L37.4849 70.2365L70.6094 38.8575L67.1708 35.2276ZM34.044 66.6088C33.3843 67.2353 32.7862 67.7857 32.3258 68.4484L36.4324 71.3007C36.5319 71.1576 36.6739 71.0067 37.4872 70.2343L34.044 66.6088ZM32.3297 68.4429C31.9471 68.9906 31.6428 69.5906 31.4284 70.2216L36.1626 71.8301C36.2243 71.6483 36.314 71.4703 36.4286 71.3062L32.3297 68.4429ZM31.4323 70.2102C31.1654 70.9834 31.0844 71.7926 30.9813 72.6653L35.9468 73.2518C36.0757 72.1604 36.1088 71.9858 36.1586 71.8415L31.4323 70.2102ZM30.981 72.6675L30.0383 80.7089L35.0043 81.2911L35.947 73.2497L30.981 72.6675ZM32.7824 83.4863L41.2707 82.595L40.7485 77.6223L32.2602 78.5137L32.7824 83.4863ZM41.2731 82.5947C42.219 82.4944 43.0143 82.4197 43.7809 82.1859L42.3222 77.4034C42.1165 77.4661 41.8734 77.5031 40.746 77.6226L41.2731 82.5947ZM43.787 82.184C44.4218 81.9886 45.0297 81.7119 45.5936 81.3588L42.94 77.1211C42.7501 77.24 42.5404 77.3362 42.3161 77.4053L43.787 82.184ZM45.5893 81.3615C46.2764 80.9332 46.8485 80.3774 47.5181 79.7431L44.0794 76.1133C43.2759 76.8745 43.1078 77.0165 42.9443 77.1184L45.5893 81.3615ZM47.5181 79.7431L80.6408 48.3623L77.202 44.7326L44.0793 76.1134L47.5181 79.7431ZM80.6406 48.3625C82.4532 46.6455 83.4997 44.2881 83.5 41.7968L78.5 41.7963C78.4999 42.8701 78.0509 43.9285 77.2022 44.7325L80.6406 48.3625ZM83.5 41.7968C83.5003 39.3061 82.4548 36.9465 80.6418 35.2286L77.2028 38.8582C78.0508 39.6616 78.5001 40.7216 78.5 41.7963L83.5 41.7968ZM80.6418 35.2286C78.8334 33.5152 76.4073 32.5743 73.9051 32.5741L73.9046 37.5741C75.1655 37.5742 76.3502 38.0504 77.2028 38.8582L80.6418 35.2286ZM73.9051 32.5741C71.4015 32.5738 68.9788 33.515 67.1709 35.2275L70.6094 38.8576C71.4628 38.0491 72.6446 37.5739 73.9046 37.5741L73.9051 32.5741ZM67.1712 35.2272L59.6441 42.3546L63.0819 45.9852L70.609 38.8579L67.1712 35.2272ZM59.6437 45.9848L69.6786 55.4915L73.1173 51.8617L63.0824 42.355L59.6437 45.9848ZM73.1171 55.4917L80.6424 48.3643L77.2041 44.7341L69.6788 51.8615L73.1171 55.4917ZM44.5474 38.564C44.5606 39.5055 44.3765 40.4438 44.0021 41.3253L48.604 43.2803C49.2481 41.764 49.57 40.1363 49.5469 38.4935L44.5474 38.564ZM44.0022 41.325C43.6274 42.2069 43.0677 43.0186 42.3483 43.7093L45.8111 47.3161C47.0081 46.1669 47.9597 44.7964 48.6039 43.2806L44.0022 41.325ZM42.3483 43.7093C41.6284 44.4005 40.7637 44.956 39.8008 45.3374L41.642 49.9861C43.1965 49.3704 44.6146 48.4649 45.8111 47.3161L42.3483 43.7093ZM39.8008 45.3374C38.8374 45.719 37.7993 45.9171 36.7479 45.9171V50.9171C38.4249 50.9171 40.088 50.6016 41.642 49.9861L39.8008 45.3374ZM36.7479 45.9171C35.6965 45.9171 34.6585 45.719 33.6951 45.3374L31.8539 49.9861C33.4078 50.6016 35.0709 50.9171 36.7479 50.9171V45.9171ZM33.6951 45.3374C32.7322 44.956 31.8675 44.4005 31.1476 43.7093L27.6848 47.3161C28.8813 48.4649 30.2994 49.3704 31.8539 49.9861L33.6951 45.3374ZM31.1476 43.7093C30.4282 43.0186 29.8685 42.2069 29.4937 41.325L24.892 43.2806C25.5362 44.7964 26.4878 46.1669 27.6848 47.3161L31.1476 43.7093ZM29.4938 41.3253C29.1193 40.4438 28.9352 39.5055 28.9485 38.564L23.949 38.4935C23.9258 40.1363 24.2477 41.764 24.8919 43.2803L29.4938 41.3253ZM28.9485 38.5641C28.9749 36.7004 29.774 34.892 31.2207 33.5398L27.8065 29.887C25.3978 32.1383 23.9952 35.227 23.949 38.4934L28.9485 38.5641ZM31.2209 33.5396C32.6718 32.1832 34.6554 31.4013 36.7479 31.4013V26.4013C33.4246 26.4013 30.2102 27.6398 27.8063 29.8872L31.2209 33.5396ZM36.7479 31.4013C38.8405 31.4013 40.824 32.1832 42.275 33.5396L45.6896 29.8872C43.2857 27.6398 40.0713 26.4013 36.7479 26.4013V31.4013ZM42.2752 33.5398C43.7218 34.892 44.521 36.7004 44.5474 38.5641L49.5469 38.4934C49.5007 35.227 48.098 32.1383 45.6894 29.887L42.2752 33.5398Z" fill="#101980"/>
</svg>
