<svg width="52" height="52" viewBox="0 0 52 52" fill="none" xmlns="http://www.w3.org/2000/svg">
<rect x="5" y="12" width="42" height="10" fill="#95CFFD"/>
<path fill-rule="evenodd" clip-rule="evenodd" d="M11.2018 9.23833L40.7983 9.23833C41.9565 9.23831 42.9214 9.23829 43.7094 9.30267C44.5306 9.36976 45.299 9.51467 46.0248 9.88448C47.1402 10.4528 48.0472 11.3598 48.6155 12.4753C48.9853 13.2011 49.1302 13.9694 49.1973 14.7907C49.2617 15.5786 49.2617 16.5436 49.2617 17.7018V34.2982C49.2617 35.4564 49.2617 36.4214 49.1973 37.2093C49.1302 38.0306 48.9853 38.7989 48.6155 39.5247C48.0472 40.6402 47.1402 41.5471 46.0248 42.1155C45.299 42.4853 44.5306 42.6302 43.7094 42.6973C42.9214 42.7617 41.9565 42.7617 40.7983 42.7617L11.2017 42.7617C10.0435 42.7617 9.07859 42.7617 8.29067 42.6973C7.46944 42.6302 6.70107 42.4853 5.97527 42.1155C4.85978 41.5471 3.95286 40.6402 3.38449 39.5247C3.01468 38.7989 2.86978 38.0306 2.80268 37.2093C2.7383 36.4214 2.73832 35.4565 2.73834 34.2982L2.73834 21.6678C2.73834 21.6674 2.73834 21.667 2.73834 21.6667C2.73834 21.6663 2.73834 21.6659 2.73834 21.6655L2.73834 17.7018C2.73832 16.5435 2.7383 15.5786 2.80268 14.7907C2.86978 13.9694 3.01468 13.2011 3.38449 12.4753C3.95286 11.3598 4.85978 10.4528 5.97527 9.88448C6.70107 9.51466 7.46944 9.36976 8.29067 9.30266C9.0786 9.23829 10.0435 9.23831 11.2018 9.23833ZM5.92834 23.2617L5.92834 34.2333C5.92834 35.4731 5.92958 36.307 5.98208 36.9496C6.03306 37.5735 6.12431 37.8753 6.2268 38.0765C6.48934 38.5917 6.90825 39.0107 7.4235 39.2732C7.62465 39.3757 7.92648 39.4669 8.55044 39.5179C9.19301 39.5704 10.0269 39.5717 11.2667 39.5717L40.7333 39.5717C41.9731 39.5717 42.807 39.5704 43.4496 39.5179C44.0735 39.4669 44.3754 39.3757 44.5765 39.2732C45.0918 39.0107 45.5107 38.5918 45.7732 38.0765C45.8757 37.8754 45.967 37.5735 46.0179 36.9496C46.0704 36.307 46.0717 35.4731 46.0717 34.2333V23.2617H5.92834ZM46.0717 20.0717H5.92834V17.7667C5.92834 16.5269 5.92958 15.693 5.98209 15.0504C6.03306 14.4265 6.12431 14.1246 6.2268 13.9235C6.48934 13.4082 6.90825 12.9893 7.4235 12.7268C7.62465 12.6243 7.92648 12.533 8.55044 12.4821C9.19301 12.4296 10.0269 12.4283 11.2667 12.4283L40.7333 12.4283C41.9731 12.4283 42.807 12.4296 43.4496 12.4821C44.0735 12.5331 44.3754 12.6243 44.5765 12.7268C45.0918 12.9893 45.5107 13.4082 45.7732 13.9235C45.8757 14.1246 45.967 14.4265 46.0179 15.0504C46.0704 15.693 46.0717 16.5269 46.0717 17.7667V20.0717ZM11.405 30.3333C11.405 29.4524 12.1191 28.7383 13 28.7383H23.8333C24.7142 28.7383 25.4283 29.4524 25.4283 30.3333C25.4283 31.2142 24.7142 31.9283 23.8333 31.9283H13C12.1191 31.9283 11.405 31.2142 11.405 30.3333Z" fill="#101980"/>
</svg>
