<svg width="52" height="52" viewBox="0 0 52 52" fill="none" xmlns="http://www.w3.org/2000/svg">
<ellipse cx="26.5" cy="26" rx="21.5" ry="22" fill="#95CFFD"/>
<path d="M33.2222 17.9252C31.3056 16.2097 28.7746 15.1667 26 15.1667C20.0169 15.1667 15.1667 20.0169 15.1667 26C15.1667 31.9831 20.0169 36.8333 26 36.8333C28.7746 36.8333 31.3056 35.7902 33.2222 34.0748M13 29.25H23.8333M13 22.75H23.8333M47.6667 26C47.6667 37.9662 37.9662 47.6667 26 47.6667C14.0338 47.6667 4.33333 37.9662 4.33333 26C4.33333 14.0338 14.0338 4.33333 26 4.33333C37.9662 4.33333 47.6667 14.0338 47.6667 26Z" stroke="#101980" stroke-width="3.19" stroke-linecap="round" stroke-linejoin="round"/>
</svg>
