<svg width="52" height="52" viewBox="0 0 52 52" fill="none" xmlns="http://www.w3.org/2000/svg">
<path d="M36 25H40V29H36V25Z" fill="#95CFFD"/>
<path d="M7 42C7 39.7909 8.79086 38 11 38H46V47H7V42Z" fill="#95CFFD"/>
<path d="M28 37C28 34.7909 29.7909 33 32 33H47V42H28V37Z" fill="#95CFFD"/>
<path d="M8 41.5192C8 36.2619 12.2619 32 17.5192 32V32C20.5462 32 23 34.4538 23 37.4808V48H8V41.5192Z" fill="#95CFFD"/>
<path d="M29 37.2C29 31.5667 33.5667 27 39.2 27V27C41.851 27 44 29.149 44 31.8V43H29V37.2Z" fill="#95CFFD"/>
<path fill-rule="evenodd" clip-rule="evenodd" d="M40 6.19H12C8.79123 6.19 6.19 8.79122 6.19 12V41C6.19 44.2088 8.79123 46.81 12 46.81H40C43.2088 46.81 45.81 44.2088 45.81 41V12C45.81 8.79123 43.2088 6.19 40 6.19ZM12 3C7.02944 3 3 7.02944 3 12V41C3 45.9706 7.02944 50 12 50H40C44.9706 50 49 45.9706 49 41V12C49 7.02944 44.9706 3 40 3H12Z" fill="#101980"/>
<path fill-rule="evenodd" clip-rule="evenodd" d="M4.96972 44.2176C4.29726 43.6486 4.21339 42.6422 4.7824 41.9697L15.7824 28.9697L18.2176 31.0303L7.2176 44.0303C6.64859 44.7027 5.64218 44.7866 4.96972 44.2176Z" fill="#101980"/>
<path fill-rule="evenodd" clip-rule="evenodd" d="M16.0036 28.7545C16.6915 28.2042 17.6952 28.3157 18.2455 29.0036L26.2455 39.0036L23.7545 40.9964L15.7545 30.9964C15.2042 30.3085 15.3158 29.3048 16.0036 28.7545Z" fill="#101980"/>
<path fill-rule="evenodd" clip-rule="evenodd" d="M24.0311 41.267C23.3314 40.7319 23.1979 39.7309 23.733 39.0311L36.733 22.0311L39.267 23.9689L26.267 40.9689C25.7319 41.6686 24.7309 41.8021 24.0311 41.267Z" fill="#101980"/>
<path fill-rule="evenodd" clip-rule="evenodd" d="M37.043 21.724C37.7477 21.1955 38.7475 21.3383 39.276 22.043L48.276 34.043C48.8045 34.7477 48.6617 35.7475 47.957 36.276C47.2523 36.8045 46.2525 36.6617 45.724 35.957L36.724 23.957C36.1955 23.2523 36.3383 22.2525 37.043 21.724Z" fill="#101980"/>
<path d="M21 15C21 17.7614 18.7614 20 16 20C13.2386 20 11 17.7614 11 15C11 12.2386 13.2386 10 16 10C18.7614 10 21 12.2386 21 15Z" fill="#95CFFD"/>
<path fill-rule="evenodd" clip-rule="evenodd" d="M16 16.81C16.9996 16.81 17.81 15.9996 17.81 15C17.81 14.0004 16.9996 13.19 16 13.19C15.0004 13.19 14.19 14.0004 14.19 15C14.19 15.9996 15.0004 16.81 16 16.81ZM16 20C18.7614 20 21 17.7614 21 15C21 12.2386 18.7614 10 16 10C13.2386 10 11 12.2386 11 15C11 17.7614 13.2386 20 16 20Z" fill="#101980"/>
</svg>
