<svg width="52" height="52" viewBox="0 0 52 52" fill="none" xmlns="http://www.w3.org/2000/svg">
<g clip-path="url(#clip0_4_264)">
<path d="M38.0499 16.4941C37.1077 13.8984 38.4468 11.0267 41.0409 10.08L43.4439 9.20296L47 19L44.597 19.877C42.0029 20.8237 39.1363 19.487 38.1941 16.8913L38.0499 16.4941Z" fill="#95CFFD"/>
<path d="M13.1191 33.8686L20.2959 43.887C20.4978 44.1688 20.5987 44.3096 20.7004 44.4277C21.6943 45.5808 23.3867 46.029 25.0068 45.5681C25.1727 45.5209 25.354 45.4548 25.7165 45.3225C26.1704 45.1568 26.3974 45.074 26.5826 44.9877C28.4131 44.1343 29.4243 42.2538 28.9954 40.5003C28.952 40.3229 28.8785 40.1204 28.7314 39.7153L19.5648 14.4614M41.585 22.4763C45.4226 21.0757 47.5259 17.164 46.2828 13.7393C45.0397 10.3145 40.9209 8.67364 37.0833 10.0743M20.0611 14.2803L12.6161 16.9975C7.68201 18.7982 4.97777 23.8276 6.57606 28.2308C8.17434 32.6341 13.4699 34.7438 18.404 32.943L25.849 30.2258C29.356 28.9459 34.2549 29.0579 38.149 29.46C40.4207 29.6947 41.5566 29.812 42.1638 29.5121C42.7268 29.234 43.0849 28.8373 43.273 28.2831C43.4758 27.6855 43.14 26.7604 42.4684 24.9102L36.1998 7.6404C35.5283 5.79021 35.1925 4.86511 34.654 4.53802C34.1547 4.23472 33.6261 4.16159 33.0165 4.31149C32.3591 4.47314 31.5642 5.29512 29.9743 6.93909C27.2491 9.75707 23.5681 13.0004 20.0611 14.2803Z" stroke="#101980" stroke-width="3.19" stroke-linecap="round" stroke-linejoin="round"/>
</g>
<defs>
<clipPath id="clip0_4_264">
<rect width="52" height="52" fill="white"/>
</clipPath>
</defs>
</svg>
