<svg width="52" height="52" viewBox="0 0 52 52" fill="none" xmlns="http://www.w3.org/2000/svg">
<path d="M40.751 22.128L36.665 26.215L42.114 31.664L46.2 27.577C46.9226 26.8544 47.3285 25.8744 47.3285 24.8525C47.3285 23.8306 46.9226 22.8506 46.2 22.128C45.4774 21.4054 44.4974 20.9995 43.4755 20.9995C42.4536 20.9995 41.4736 21.4054 40.751 22.128Z" fill="#95CFFD"/>
<path d="M18.438 36.724C18.05 35.8487 17.3942 35.1191 16.565 34.6403C15.7358 34.1616 14.7761 33.9584 13.824 34.06L11.158 34.344C10.3647 34.4269 9.5644 34.2781 8.85385 33.9158C8.14329 33.5535 7.55292 32.9931 7.15412 32.3023C6.75533 31.6115 6.56519 30.8201 6.60669 30.0235C6.6482 29.227 6.91957 28.4596 7.388 27.814L8.966 25.644C9.52914 24.8697 9.83248 23.9369 9.83248 22.9795C9.83248 22.0221 9.52914 21.0893 8.966 20.315L7.387 18.146C7.03548 17.6636 6.7929 17.1106 6.67603 16.5252C6.55915 15.9399 6.57077 15.3361 6.71008 14.7557C6.84938 14.1753 7.11305 13.6321 7.48286 13.1635C7.85268 12.695 8.31982 12.3123 8.852 12.042C9.56325 11.6798 10.3643 11.5319 11.158 11.616L13.833 11.9C14.785 12 15.744 11.796 16.573 11.317C17.3989 10.8373 18.0517 10.1085 18.438 9.235L19.528 6.785C19.8517 6.05497 20.3803 5.43458 21.0497 4.99912C21.719 4.56367 22.5004 4.33188 23.299 4.33188C24.0976 4.33188 24.879 4.56367 25.5483 4.99912C26.2177 5.43458 26.7463 6.05497 27.07 6.785L28.168 9.235C28.554 10.1084 29.2065 10.8372 30.032 11.317C30.862 11.796 31.822 12 32.773 11.9L35.44 11.616C36.0335 11.5529 36.6336 11.6194 37.1988 11.8109C37.7641 12.0023 38.2811 12.3142 38.7141 12.7249C39.147 13.1357 39.4857 13.6355 39.7067 14.1899C39.9277 14.7443 40.0257 15.34 39.994 15.936M40.752 22.128L22.762 40.117C22.362 40.518 22.161 40.719 22.009 40.95C21.874 41.154 21.767 41.377 21.692 41.61C21.606 41.873 21.575 42.155 21.512 42.718L21 47.328L25.61 46.817C26.173 46.754 26.455 46.722 26.719 46.637C26.9523 46.5612 27.1743 46.4543 27.379 46.319C27.61 46.167 27.811 45.967 28.211 45.567L46.2 27.577C46.9227 26.8544 47.3288 25.8753 47.3289 24.8534C47.329 23.8314 46.9231 22.8512 46.2005 22.1285C45.4779 21.4058 44.4978 20.9997 43.4759 20.9996C42.4539 20.9995 41.4747 21.4054 40.752 22.128ZM40.752 22.128L36.664 26.214L42.114 31.664L46.201 27.578M28.889 22.98C28.8989 23.7208 28.7615 24.4563 28.4849 25.1436C28.2082 25.8309 27.7978 26.4564 27.2774 26.9838C26.757 27.5112 26.1371 27.93 25.4535 28.2158C24.7699 28.5016 24.0364 28.6488 23.2955 28.6488C22.5546 28.6488 21.8211 28.5016 21.1375 28.2158C20.4539 27.93 19.834 27.5112 19.3136 26.9838C18.7932 26.4564 18.3828 25.8309 18.1061 25.1436C17.8295 24.4563 17.6921 23.7208 17.702 22.98C17.7217 21.5095 18.3196 20.1058 19.3665 19.0729C20.4133 18.0399 21.8248 17.4608 23.2955 17.4608C24.7662 17.4608 26.1777 18.0399 27.2245 19.0729C28.2714 20.1058 28.8693 21.5095 28.889 22.98Z" stroke="#101980" stroke-width="3.19" stroke-linecap="round" stroke-linejoin="round"/>
</svg>
